<?xml version="1.0" encoding="UTF-8" standalone="no"?>
<!-- Created with Inkscape (http://www.inkscape.org/) -->

<svg
   version="1.1"
   id="svg1"
   width="309.37695"
   height="150.06239"
   viewBox="0 0 309.37695 150.06239"
   sodipodi:docname="r.pdf"
   xmlns:inkscape="http://www.inkscape.org/namespaces/inkscape"
   xmlns:sodipodi="http://sodipodi.sourceforge.net/DTD/sodipodi-0.dtd"
   xmlns="http://www.w3.org/2000/svg"
   xmlns:svg="http://www.w3.org/2000/svg">
  <defs
     id="defs1">
    <clipPath
       clipPathUnits="userSpaceOnUse"
       id="clipPath70">
      <path
         d="M 0,0 H 1562.5 V 1562.5 H 0 Z"
         transform="scale(0.31999999)"
         clip-rule="evenodd"
         id="path70" />
    </clipPath>
    <clipPath
       clipPathUnits="userSpaceOnUse"
       id="clipPath72">
      <path
         d="M 0,0 H 1562.5 V 1562.5 H 0 Z"
         transform="scale(0.31999999)"
         clip-rule="evenodd"
         id="path72" />
    </clipPath>
    <clipPath
       clipPathUnits="userSpaceOnUse"
       id="clipPath82">
      <path
         d="m 477.13434,717.03094 h 305.2597 v 294.75986 h -305.2597 z"
         transform="matrix(0.86850369,0,0,0.86850369,-414.39298,-622.74402)"
         clip-rule="evenodd"
         id="path82" />
    </clipPath>
  </defs>
  <sodipodi:namedview
     id="namedview1"
     pagecolor="#ffffff"
     bordercolor="#000000"
     borderopacity="0.25"
     inkscape:showpageshadow="2"
     inkscape:pageopacity="0.0"
     inkscape:pagecheckerboard="0"
     inkscape:deskcolor="#d1d1d1">
    <inkscape:page
       x="6.871997e-07"
       y="2.3501109e-06"
       width="309.37695"
       height="150.06239"
       id="page2"
       margin="0"
       bleed="0" />
  </sodipodi:namedview>
  <g
     id="g69"
     inkscape:groupmode="layer"
     inkscape:label="4"
     transform="translate(-1628.0332,-110.60557)">
    <path
       id="path69"
       d="M 0,0 H 500 V 500 H 0 Z"
       style="fill:#ffffff;fill-opacity:1;fill-rule:nonzero;stroke:none"
       transform="translate(1560)"
       clip-path="url(#clipPath70)"
       inkscape:export-filename="path69.svg"
       inkscape:export-xdpi="100"
       inkscape:export-ydpi="100" />
    <path
       id="path71"
       d="M 0,0 H 500 V 500 H 0 Z"
       style="fill:#ffffff;fill-opacity:1;fill-rule:nonzero;stroke:none"
       transform="translate(1560)"
       clip-path="url(#clipPath72)" />
    <path
       id="path81"
       d="M 0,0 H 265 V 256 H 0 Z"
       style="fill:#ffffff;fill-opacity:1;fill-rule:nonzero;stroke:none"
       transform="matrix(0.36844977,0,0,0.36844977,1712.683,229.44989)"
       clip-path="url(#clipPath82)" />
    <g
       id="g101">
      <g
         id="g102" />
      <path
         id="path102"
         d="m 5.6882971,-3.1108112 h 7.5468749 v 3.10937509 H 0.93829686 V -2.2670612 L 8.3914222,-12.845187 H 1.7351719 v -3.109375 H 12.750797 v 2.859375 z M 28.180485,-15.954562 34.836736,-0.00143611 h -3.6875 L 29.696111,-3.4233113 h -6.765626 l -1.421875,3.42187519 h -3.703125 l 6.65625,-15.95312589 z m 0.234376,9.4218756 -2.093751,-5.0156256 -2.078125,5.0156256 z m 21.964844,-9.4218756 h 3.40625 v 15.95312589 h -3.25 L 42.86408,-10.423312 V -0.00143611 H 39.473455 V -15.954562 h 3.1875 l 7.71875,10.4843757 z m 8.617188,0 h 9.96875 v 3.109375 h -6.546875 v 2.8750005 h 5.765625 v 3.1093751 h -5.765625 v 3.7812502 h 6.546875 v 3.07812509 h -9.96875 z m 14.648438,0 h 11.546876 v 3.109375 H 81.114081 V -0.00143611 H 77.723456 V -12.845187 h -4.078125 z m 0,0"
         style="fill:#373737;fill-opacity:1;fill-rule:nonzero;stroke:none"
         aria-label="ZANET "
         transform="translate(1717.675,248.1069)" />
      <g
         id="g103" />
      <path
         id="path103"
         d="m 4.4851761,-3.0795612 h 6.5468749 v 3.07812509 H 1.063301 V -15.954562 h 3.4218751 z m 0,0"
         style="fill:#004aad;fill-opacity:1;fill-rule:nonzero;stroke:none"
         aria-label="L"
         transform="translate(1815.7375,248.1069)" />
      <g
         id="g104" />
      <path
         id="path104"
         d="m 8.5945519,-16.173312 c 1.0820313,0 2.1015621,0.21875 3.0625001,0.65625 0.957031,0.429688 1.789063,1.015625 2.5,1.765625 0.71875,0.75 1.28125,1.621094 1.6875,2.609375 0.414063,0.992188 0.625,2.0468755 0.625,3.1718756 0,1.1171875 -0.210937,2.1796875 -0.625,3.1875001 -0.40625,1 -0.96875,1.8750001 -1.6875,2.6250001 -0.710937,0.75 -1.542969,1.35156255 -2.5,1.79687507 C 10.696114,0.07668889 9.6765832,0.2954389 8.5945519,0.2954389 7.5086143,0.2954389 6.489083,0.07668889 5.5320517,-0.36081113 4.5711142,-0.80612365 3.7390829,-1.4076862 3.0320516,-2.1576862 c -0.6992187,-0.75 -1.2578125,-1.6250001 -1.671875,-2.6250001 -0.40625006,-1.0078126 -0.60937507,-2.0703126 -0.60937507,-3.1875001 0,-1.1250001 0.20312501,-2.1796876 0.60937507,-3.1718756 0.4140625,-0.988281 0.9726563,-1.859375 1.671875,-2.609375 0.7070313,-0.75 1.5390626,-1.335937 2.5000001,-1.765625 0.9570313,-0.4375 1.9765626,-0.65625 3.0625002,-0.65625 z m 0,13.0625008 c 0.6132812,0 1.1914063,-0.125 1.7343751,-0.3750001 0.539062,-0.2578125 1.015625,-0.609375 1.421875,-1.046875 0.40625,-0.4453125 0.722656,-0.9609375 0.953125,-1.5468751 0.226563,-0.5820312 0.34375,-1.2109375 0.34375,-1.890625 0,-0.6757813 -0.117187,-1.3046876 -0.34375,-1.8906251 -0.230469,-0.5937505 -0.546875,-1.1093755 -0.953125,-1.5468755 -0.40625,-0.445312 -0.882813,-0.796875 -1.421875,-1.046875 -0.5429688,-0.257812 -1.1210939,-0.390625 -1.7343751,-0.390625 -0.6171876,0 -1.1953126,0.132813 -1.7343751,0.390625 -0.5429688,0.25 -1.0156251,0.601563 -1.4218751,1.046875 -0.3984375,0.4375 -0.7148437,0.953125 -0.953125,1.5468755 -0.2304688,0.5859375 -0.34375,1.2148438 -0.34375,1.8906251 0,0.6796875 0.1132812,1.3085938 0.34375,1.890625 0.2382813,0.5859376 0.5546875,1.1015626 0.953125,1.5468751 0.40625,0.4375 0.8789063,0.7890625 1.4218751,1.046875 0.5390625,0.2500001 1.1171875,0.3750001 1.7343751,0.3750001 z M 32.828928,-11.204562 c 0,0.511719 -0.07422,0.996094 -0.21875,1.4531255 -0.136719,0.4609375 -0.335938,0.8828125 -0.59375,1.265625 -0.25,0.375 -0.558594,0.7109376 -0.921875,1.0000001 -0.355469,0.2929687 -0.746094,0.53125 -1.171875,0.71875 l 5.296875,6.76562529 h -3.984375 l -4.9375,-6.43750029 h -1.515625 v 6.43750029 H 21.360177 V -15.954562 h 6.875001 c 0.632812,0 1.234375,0.125 1.796875,0.375 0.5625,0.25 1.046875,0.589844 1.453125,1.015625 0.414062,0.429688 0.742187,0.933594 0.984375,1.515625 0.238281,0.574219 0.359375,1.1875 0.359375,1.84375 z m -5.015625,1.6562505 c 0.4375,0 0.8125,-0.15625 1.125,-0.4687505 0.3125,-0.320312 0.46875,-0.71875 0.46875,-1.1875 0,-0.445312 -0.15625,-0.832031 -0.46875,-1.15625 -0.3125,-0.320312 -0.6875,-0.484375 -1.125,-0.484375 h -3.03125 v 3.2968755 z m 12.101563,-6.4062505 h 9.96875 v 3.109375 h -6.546875 v 2.8750005 h 5.765625 v 3.1093751 h -5.765625 v 3.7812502 h 6.546875 v 3.07812509 h -9.96875 z m 26.101563,0 h 3.40625 v 15.95312589 h -3.25 L 58.500804,-10.423312 V -0.00143611 H 55.110179 V -15.954562 h 3.1875 l 7.71875,10.4843757 z m 13.23047,12.8437508 h 7.546875 v 3.10937509 H 74.496898 V -2.2670612 l 7.453126,-10.5781258 h -6.656251 v -3.109375 h 11.015626 v 2.859375 z M 99.453931,-16.173312 c 1.082029,0 2.101559,0.21875 3.062499,0.65625 0.95703,0.429688 1.78906,1.015625 2.5,1.765625 0.71875,0.75 1.28125,1.621094 1.6875,2.609375 0.41406,0.992188 0.625,2.0468755 0.625,3.1718756 0,1.1171875 -0.21094,2.1796875 -0.625,3.1875001 -0.40625,1 -0.96875,1.8750001 -1.6875,2.6250001 -0.71094,0.75 -1.54297,1.35156255 -2.5,1.79687507 -0.96094,0.43750002 -1.98047,0.65625003 -3.062499,0.65625003 -1.085938,0 -2.105469,-0.21875001 -3.0625,-0.65625003 -0.960938,-0.44531252 -1.792969,-1.04687507 -2.500001,-1.79687507 -0.699218,-0.75 -1.257812,-1.6250001 -1.671875,-2.6250001 -0.40625,-1.0078126 -0.609375,-2.0703126 -0.609375,-3.1875001 0,-1.1250001 0.203125,-2.1796876 0.609375,-3.1718756 0.414063,-0.988281 0.972657,-1.859375 1.671875,-2.609375 0.707032,-0.75 1.539063,-1.335937 2.500001,-1.765625 0.957031,-0.4375 1.976562,-0.65625 3.0625,-0.65625 z m 0,13.0625008 c 0.613279,0 1.191409,-0.125 1.734379,-0.3750001 0.53906,-0.2578125 1.01562,-0.609375 1.42187,-1.046875 0.40625,-0.4453125 0.72266,-0.9609375 0.95313,-1.5468751 0.22656,-0.5820312 0.34375,-1.2109375 0.34375,-1.890625 0,-0.6757813 -0.11719,-1.3046876 -0.34375,-1.8906251 -0.23047,-0.5937505 -0.54688,-1.1093755 -0.95313,-1.5468755 -0.40625,-0.445312 -0.88281,-0.796875 -1.42187,-1.046875 -0.54297,-0.257812 -1.1211,-0.390625 -1.734379,-0.390625 -0.617188,0 -1.195313,0.132813 -1.734375,0.390625 -0.542969,0.25 -1.015625,0.601563 -1.421875,1.046875 -0.398438,0.4375 -0.714844,0.953125 -0.953126,1.5468755 -0.230468,0.5859375 -0.34375,1.2148438 -0.34375,1.8906251 0,0.6796875 0.113282,1.3085938 0.34375,1.890625 0.238282,0.5859376 0.554688,1.1015626 0.953126,1.5468751 0.40625,0.4375 0.878906,0.7890625 1.421875,1.046875 0.539062,0.2500001 1.117187,0.3750001 1.734375,0.3750001 z m 0,0"
         style="fill:#373737;fill-opacity:1;fill-rule:nonzero;stroke:none"
         aria-label="ORENZO"
         transform="translate(1830.0812,248.1069)" />
    </g>
    <g
       id="g105">
      <g
         id="g106" />
      <path
         id="path106"
         d="m 6.6988298,-8.498399 h 1.2495035 v 8.49662395 H 6.6988298 V -3.900226 H 1.9340563 v 3.89845095 H 0.66789275 V -8.498399 H 1.9340563 v 3.4319697 h 4.7647735 z m 10.0168532,8.49662395 h -1.366124 l 3.53193,-8.49662395 h 1.382784 l 3.54859,8.49662395 H 22.446739 L 21.330516,-2.6673826 h -3.51527 z m 1.582704,-3.81515075 h 2.548988 l -1.266164,-3.0654487 z m 19.937912,3.81515075 H 36.653594 L 33.987987,-3.6669854 h -1.499405 v 3.66521035 H 31.239079 V -8.498399 h 3.44863 c 0.333201,0 0.649742,0.06664 0.949622,0.1999205 0.299881,0.1249504 0.558112,0.2915509 0.783023,0.4998015 0.220745,0.2124156 0.391511,0.4664813 0.516461,0.7663621 0.13328,0.2915508 0.199921,0.5997617 0.199921,0.9329627 0,0.2790557 -0.04582,0.5456165 -0.133281,0.7996822 -0.09163,0.2457357 -0.212415,0.4664813 -0.366521,0.6664019 -0.15827,0.1999205 -0.345696,0.3790161 -0.566441,0.5331215 -0.212416,0.1457754 -0.445657,0.2499007 -0.699722,0.3165409 z m -3.54859,-4.84807365 c 0.1666,0 0.324871,-0.03332 0.483141,-0.09996 0.154105,-0.06664 0.283221,-0.1541054 0.383181,-0.2665608 0.10829,-0.1082903 0.199921,-0.2415706 0.266561,-0.3998411 0.06664,-0.1541054 0.09996,-0.3207059 0.09996,-0.4998014 0,-0.1749305 -0.03332,-0.3373659 -0.09996,-0.4831414 -0.06664,-0.1541054 -0.158271,-0.2873858 -0.266561,-0.3998411 -0.09996,-0.1207853 -0.229076,-0.2165806 -0.383181,-0.2832208 -0.15827,-0.07497 -0.316541,-0.1166203 -0.483141,-0.1166203 h -2.199127 v 2.5656472 z M 45.66668,-0.00177505 V -8.498399 h 3.032128 c 0.608092,0 1.149543,0.1124553 1.616025,0.3332009 0.474811,0.2249107 0.870487,0.5289565 1.182863,0.9163026 0.320706,0.3790161 0.558112,0.8288373 0.716382,1.3494638 0.166601,0.5247915 0.249901,1.074573 0.249901,1.6493447 0,0.5914316 -0.09163,1.1453782 -0.266561,1.6660047 -0.1666,0.5122964 -0.399841,0.9621177 -0.699722,1.3494638 -0.299881,0.37901604 -0.662237,0.67889689 -1.082903,0.89964251 -0.412336,0.22491063 -0.857992,0.33320094 -1.332804,0.33320094 z m 2.982148,-1.16620325 c 0.453986,0 0.837167,-0.0833 1.149543,-0.2499007 0.320706,-0.1666005 0.587267,-0.3873461 0.799683,-0.6664019 0.20825,-0.2748908 0.358191,-0.6039267 0.449821,-0.9829428 0.09996,-0.3748511 0.14994,-0.7705272 0.14994,-1.1828633 0,-0.4081712 -0.04998,-0.8038473 -0.14994,-1.1828634 -0.09163,-0.374851 -0.241571,-0.708052 -0.449821,-0.9996028 -0.199921,-0.2873858 -0.462317,-0.5164614 -0.783023,-0.6830619 -0.324871,-0.1749305 -0.712217,-0.2665608 -1.166203,-0.2665608 h -1.715985 v 6.2141976 z M 69.507207,-8.498399 h 1.416104 l -2.565647,8.49662395 H 67.14148 L 65.558776,-5.29967 65.342195,-6.2492927 65.125615,-5.2496899 63.55957,-0.00177505 H 62.326727 L 59.777739,-8.498399 h 1.366124 l 1.765965,6.4640982 1.965886,-6.4640982 h 0.949623 l 1.965885,6.4141181 z m 9.646167,8.49662395 H 77.78725 L 81.31918,-8.498399 h 1.382784 l 3.54859,8.49662395 H 84.88443 L 83.768207,-2.6673826 h -3.51527 z m 1.582705,-3.81515075 h 2.548987 l -1.266164,-3.0654487 z m 19.937911,3.81515075 H 99.091285 L 96.425678,-3.6669854 h -1.499404 v 3.66521035 H 93.67677 V -8.498399 h 3.44863 c 0.333201,0 0.649742,0.06664 0.949622,0.1999205 0.299881,0.1249504 0.558112,0.2915509 0.783023,0.4998015 0.220745,0.2124156 0.391511,0.4664813 0.516461,0.7663621 0.133281,0.2915508 0.199921,0.5997617 0.199921,0.9329627 0,0.2790557 -0.04582,0.5456165 -0.133281,0.7996822 -0.09163,0.2457357 -0.212415,0.4664813 -0.366521,0.6664019 -0.15827,0.1999205 -0.345696,0.3790161 -0.566441,0.5331215 -0.212416,0.1457754 -0.445657,0.2499007 -0.699722,0.3165409 z M 97.1254,-4.8498487 c 0.1666,0 0.324871,-0.03332 0.483141,-0.09996 0.154106,-0.06664 0.283221,-0.1541054 0.383181,-0.2665608 0.108291,-0.1082903 0.199921,-0.2415706 0.266561,-0.3998411 0.06664,-0.1541054 0.09996,-0.3207059 0.09996,-0.4998014 0,-0.1749305 -0.03332,-0.3373659 -0.09996,-0.4831414 -0.06664,-0.1541054 -0.15827,-0.2873858 -0.266561,-0.3998411 -0.09996,-0.1207853 -0.229075,-0.2165806 -0.383181,-0.2832208 -0.15827,-0.07497 -0.316541,-0.1166203 -0.483141,-0.1166203 h -2.199126 v 2.5656472 z m 16.12693,-3.6485503 v 1.1162231 h -3.94844 v 2.3157466 h 3.51527 v 1.1662033 h -3.51527 v 2.7322477 h 3.94844 v 1.16620325 h -5.19794 V -8.498399 Z m 0,0"
         style="fill:#004aad;fill-opacity:1;fill-rule:nonzero;stroke:none"
         aria-label="HARDWARE"
         transform="matrix(0.9378725,0,0,0.9378725,1765.522,260.66963)" />
    </g>
    <g
       id="g108">
      <path
         id="path108"
         d="m 89.47916,284.67325 h 70.11426 v 70.74236 H 89.47916 Z"
         style="fill:#000000;fill-opacity:0;fill-rule:nonzero;stroke:none"
         transform="matrix(1.3333333,0,0,-1.3333333,1560,510.71997)" />
    </g>
    <g
       id="g109">
      <path
         id="path109"
         d="M 114.51223,193.44322 H 219.27628 V 351.6656 H 114.51223 Z"
         style="fill:#000000;fill-opacity:0;fill-rule:nonzero;stroke:none"
         transform="matrix(1.3333333,0,0,-1.3333333,1560,510.71997)" />
    </g>
    <g
       id="g110">
      <path
         id="path110"
         d="m 144.90114,210.95256 h 60.81309 v 23.53548 h -60.81309 z"
         style="fill:#000000;fill-opacity:0;fill-rule:nonzero;stroke:none"
         transform="matrix(1.3333333,0,0,-1.3333333,1560,510.71997)" />
    </g>
    <g
       id="g111">
      <path
         id="path111"
         d="m 51.0249,258.28662 h 37.704254 v 41.79919 H 51.0249 Z"
         style="fill:#000000;fill-opacity:0;fill-rule:nonzero;stroke:none"
         transform="matrix(1.3333333,0,0,-1.3333333,1560,510.71997)" />
    </g>
    <g
       id="g112">
      <path
         id="path112"
         d="M 57.977425,143.9602 H 159.59341 V 296.71719 H 57.977425 Z"
         style="fill:#000000;fill-opacity:0;fill-rule:nonzero;stroke:none"
         transform="matrix(1.3333333,0,0,-1.3333333,1560,510.71997)" />
    </g>
    <g
       id="g113">
      <path
         id="path113"
         d="m 72.876,261.13776 h 59.47657 v 23.53548 H 72.876 Z"
         style="fill:#000000;fill-opacity:0;fill-rule:nonzero;stroke:none"
         transform="matrix(1.3333333,0,0,-1.3333333,1560,510.71997)" />
    </g>
    <g
       id="g114">
      <path
         id="path114"
         d="m 191.98856,198.75003 h 37.70425 v 41.79919 h -37.70425 z"
         style="fill:#000000;fill-opacity:0;fill-rule:nonzero;stroke:none"
         transform="matrix(1.3333333,0,0,-1.3333333,1560,510.71997)" />
    </g>
    <g
       id="g115">
      <path
         id="path115"
         d="m 114.51223,140.2102 h 73.26233 v 70.74235 h -73.26233 z"
         style="fill:#000000;fill-opacity:0;fill-rule:nonzero;stroke:none"
         transform="matrix(1.3333333,0,0,-1.3333333,1560,510.71997)" />
    </g>
    <g
       id="g116">
      <path
         id="path116"
         d="m 28.989763,143.9602 h 87.772467 v 51.57978 H 28.989763 Z"
         style="fill:#000000;fill-opacity:0;fill-rule:nonzero;stroke:none"
         transform="matrix(1.3333333,0,0,-1.3333333,1560,510.71997)" />
    </g>
    <path
       style="fill:#034cae;fill-opacity:1;stroke:none;stroke-linecap:round;stroke-linejoin:round;paint-order:fill markers stroke"
       d="m 1675.4937,131.145 h 97.0605 l -68.4551,118.84722 h -36.2083 l 50.6123,-87.46192 -61.3351,0.006 z"
       id="path117" />
    <path
       style="fill:#373737;fill-opacity:1;stroke:none;stroke-linecap:round;stroke-linejoin:round;stroke-opacity:1;paint-order:fill markers stroke"
       d="m 1813.8258,230.25737 h -97.0605 l 68.4551,-118.8472 h 36.2083 l -50.6123,87.4619 61.3351,-0.01 z"
       id="path117-5" />
  </g>
</svg>
